<svg xmlns="http://www.w3.org/2000/svg" viewBox="0 0 35.97 44.17"><defs><style>.cls-1{fill:#c2cad3;}</style></defs><title>Asset 2</title><g id="Layer_2" data-name="Layer 2"><g id="Layer_1-2" data-name="Layer 1"><path class="cls-1" d="M30,23.47a10,10,0,0,1,4.77-8.41,10.31,10.31,0,0,0-8.08-4.38c-3.44-.35-6.71,2-8.46,2s-4.43-2-7.29-1.92a10.81,10.81,0,0,0-9.14,5.54C-2,23.08.85,33.1,4.65,38.58c1.86,2.68,4.07,5.7,7,5.59s3.85-1.81,7.24-1.81,4.33,1.81,7.29,1.75,4.92-2.73,6.76-5.43A24.36,24.36,0,0,0,36,32.4,9.76,9.76,0,0,1,30,23.47ZM24.48,7.05A9.73,9.73,0,0,0,26.78,0a9.9,9.9,0,0,0-6.51,3.34,9.26,9.26,0,0,0-2.35,6.83,8.19,8.19,0,0,0,6.55-3.13Zm0,0"/></g></g></svg>