<svg xmlns="http://www.w3.org/2000/svg" viewBox="0 0 39 46.41"><defs><style>.cls-1{fill:#aac148;}</style></defs><title>Asset 1</title><g id="Layer_2" data-name="Layer 2"><g id="Layer_1-2" data-name="Layer 1"><path class="cls-1" d="M31.27,15.32H7.73a1,1,0,0,0-.95.95V36a1,1,0,0,0,.95.95h4.2v6.65a2.8,2.8,0,0,0,2.8,2.8h0a2.8,2.8,0,0,0,2.8-2.8V37h3.91v6.65a2.8,2.8,0,0,0,2.8,2.8h0a2.8,2.8,0,0,0,2.8-2.8V37h4.26a1,1,0,0,0,.95-.95V16.27A1,1,0,0,0,31.27,15.32Z"/><path class="cls-1" d="M2.8,15.32h0A2.8,2.8,0,0,0,0,18.11V29.46a2.8,2.8,0,0,0,2.8,2.8h0a2.8,2.8,0,0,0,2.8-2.8V18.11A2.8,2.8,0,0,0,2.8,15.32Z"/><path class="cls-1" d="M36.2,15.32h0a2.8,2.8,0,0,0-2.8,2.8V29.46a2.8,2.8,0,0,0,2.8,2.8h0a2.8,2.8,0,0,0,2.8-2.8V18.11A2.8,2.8,0,0,0,36.2,15.32Z"/><path class="cls-1" d="M7.92,13.94H31A1,1,0,0,0,32,12.79a12.77,12.77,0,0,0-6.23-8.49l2-3.56a.5.5,0,0,0-.87-.48l-2,3.59a12.78,12.78,0,0,0-10.72,0l-2-3.59a.5.5,0,1,0-.87.48l2,3.56A12.77,12.77,0,0,0,7,12.79,1,1,0,0,0,7.92,13.94ZM26.37,8.63a1.07,1.07,0,1,1-1.07-1.07A1.07,1.07,0,0,1,26.37,8.63ZM13.65,7.55a1.07,1.07,0,1,1-1.07,1.07A1.07,1.07,0,0,1,13.65,7.55Z"/></g></g></svg>