<svg xmlns="http://www.w3.org/2000/svg" xmlns:xlink="http://www.w3.org/1999/xlink" viewBox="0 0 64.4 47.66"><defs><style>.cls-1{fill:none;}.cls-2{clip-path:url(#clip-path);}.cls-3{fill:#fff;}</style><clipPath id="clip-path" transform="translate(-2.32 -6.67)"><rect class="cls-1" x="3.2" y="3.56" width="61" height="55.46" transform="translate(-3.61 4.41) rotate(-7.11)"/></clipPath></defs><title>Asset 1</title><g id="Layer_2" data-name="Layer 2"><g id="Layer_1-2" data-name="Layer 1"><g class="cls-2"><path class="cls-3" d="M3.09,21.55h0A2,2,0,0,1,2.64,21a1.52,1.52,0,0,1-.09-.18,1.85,1.85,0,0,1-.16-.48,1.27,1.27,0,0,1,0-.19s0-.06,0-.1a2,2,0,0,1,.06-.59.56.56,0,0,1,0-.06,2.05,2.05,0,0,1,.27-.58s0-.06,0-.08L11.08,7.44a1.89,1.89,0,0,1,2.7-.37,2,2,0,0,1,.37,2.77L9.64,16a56.14,56.14,0,0,1,15.47-1.32c23.48.85,42.14,17.8,41.59,37.77A1.94,1.94,0,0,1,65,54.31l-.3,0a2,2,0,0,1-1.87-2c.49-17.8-16.49-32.9-37.91-33.69A53.06,53.06,0,0,0,9.83,20l8.54,3.25a2,2,0,0,1,1.15,2.54A1.9,1.9,0,0,1,17.05,27L3.59,21.84a2,2,0,0,1-.5-.29Zm0,0" transform="translate(-2.32 -6.67)"/></g></g></g></svg>