<svg xmlns="http://www.w3.org/2000/svg" viewBox="0 0 110.94 112.41"><defs><style>.cls-1{fill:#fff;}</style></defs><title>Asset 1</title><g id="Layer_2" data-name="Layer 2"><g id="Шар_1" data-name="Шар 1"><path class="cls-1" d="M12.11,24.19l1.54-5.38A2.9,2.9,0,0,1,15.14,17l6.44-3.22a2.9,2.9,0,0,0,.75-.54l4.82-4.82a2.9,2.9,0,0,1,2-.85h5A2.9,2.9,0,0,0,36.8,6l1.28-2.57a2.9,2.9,0,0,1,3-1.58l5.79.72.36,0h9.14a2.9,2.9,0,0,0,1.3-.31l3.94-2a2.9,2.9,0,0,1,2.83.13l5.92,3.7a2.9,2.9,0,0,0,1.54.44h4a2.9,2.9,0,0,1,2,.76l10.34,9.48a2.9,2.9,0,0,0,2,.76h.57a2.9,2.9,0,0,1,2.17,1l6.84,7.7a2.9,2.9,0,0,1,.47.73L105,35.48l.09.21,3.89,10.69a2.9,2.9,0,0,1,.12.42L110.89,56a2.9,2.9,0,0,1,0,1.14l-.83,4.17a2.9,2.9,0,0,1-.15.51l-1.55,3.88a2.9,2.9,0,0,0-.12,1.78l.65,2.6a2.9,2.9,0,0,0,.4.9h0a2.9,2.9,0,0,1-1,4.12L105.07,77a2.9,2.9,0,0,0-1.37,1.81l-.61,2.45a2.9,2.9,0,0,0-.09.7v3.44a2.9,2.9,0,0,1-.85,2l-.95.95a2.9,2.9,0,0,1-.44.36l-2.12,1.41a2.9,2.9,0,0,0-1,1.11l-1.45,2.89a2.9,2.9,0,0,1-.54.75l-2.25,2.25a2.9,2.9,0,0,1-1,.64l-4,1.62a2.9,2.9,0,0,0-.73.43l-4.51,3.61a2.9,2.9,0,0,1-.32.22l-4.7,2.82-.25.17L74.77,109a2.9,2.9,0,0,1-1.74.58H66.36a2.9,2.9,0,0,0-.7.09l-3.65.91-7,1.74a2.9,2.9,0,0,1-2-.22l-3-1.52-7-3.52a2.9,2.9,0,0,0-2-.22l-2.33.58a2.9,2.9,0,0,1-1.27,0l-3.67-.73a2.9,2.9,0,0,1-1.24-.58l-4-3.16a2.9,2.9,0,0,0-1.11-.55l-3.2-.8-.37-.12-3.91-1.56a2.9,2.9,0,0,1-1.41-1.2l-2.31-3.86a2.9,2.9,0,0,0-.44-.56L12.2,90.78a2.9,2.9,0,0,1-.36-.44L10.25,88a2.9,2.9,0,0,1-.38-.81L8.21,81.3A2.9,2.9,0,0,0,7.47,80L5.33,77.91a2.9,2.9,0,0,1-.54-.75l-1.65-3.3a2.9,2.9,0,0,1-.22-.59L2,69.77a2.9,2.9,0,0,0-.12-.37L.21,65.1A2.9,2.9,0,0,1,0,64V62.26A2.9,2.9,0,0,1,.31,61l1.25-2.5a2.9,2.9,0,0,0,.25-1.86L1,52.76a2.9,2.9,0,0,0-.09-.35L.48,51a2.9,2.9,0,0,1,.43-2.65l1.51-2A2.9,2.9,0,0,0,3,44.61V38a2.9,2.9,0,0,1,.15-.92l.75-2.25a2.9,2.9,0,0,1,.26-.57l2.4-4a2.9,2.9,0,0,1,1.19-1.1l1.08-.54.31-.18,1.56-1A2.9,2.9,0,0,0,12,25v0A2.9,2.9,0,0,1,12.11,24.19Z"/></g></g></svg>