<svg xmlns="http://www.w3.org/2000/svg" viewBox="0 0 10 18.5"><defs><style>.cls-1{fill:#506ea5;}</style></defs><title>Asset 1</title><g id="Layer_2" data-name="Layer 2"><g id="Layer_1-2" data-name="Layer 1"><path class="cls-1" d="M9.62,0H7.23A4.21,4.21,0,0,0,2.79,4.55v2.1H.38A.38.38,0,0,0,0,7v3a.38.38,0,0,0,.38.38H2.79v7.67a.38.38,0,0,0,.38.38H6.31a.38.38,0,0,0,.38-.38V10.45H9.51a.38.38,0,0,0,.38-.38V7a.38.38,0,0,0-.11-.27.38.38,0,0,0-.27-.11H6.69V4.87c0-.86.2-1.29,1.32-1.29H9.62A.38.38,0,0,0,10,3.2V.38A.38.38,0,0,0,9.62,0Zm0,0"/></g></g></svg>